PathFileType	4	(x/y/z)	S05_P20_T22
DataRate	CameraRate	NumFrames	NumMarkers	Units	OrigDataRate	OrigDataStartFrame	OrigNumFrames
240	240	7	50	mm	240	245	391
Frame#	Time	Sternum			R.Acromium			L.Acromium			Top.Head			R.ASIS			L.ASIS			R.PSIS			L.PSIS			R.Great.Tro			L.Great.Tro			R.Iliac.Crest			L.Iliac.Crest			V.Sacral			R.Thigh.Upper.Post			R.Thigh.Lower.Ant			R.Thigh.Lower.Post			R.Thigh.Upper.Ant			R.Knee.Lat			R.Knee.Med			R.Shank.Upper.Post			R.Shank.Lower.Ant			R.Shank.Lower.Post			R.Shank.Upper.Ant			R.Ankle.Lat			R.Ankle.Med			R.Heel.Upper			R.Heel.Med			R.Heel.Lat			R.Toe.Lat			R.Toe.Med			R.Toe.Tip			L.Thigh.Upper.Post			L.Thigh.Lower.Ant			L.Thigh.Lower.Post			L.Thigh.Upper.Ant			L.Knee.Lat			L.Shank.Upper.Post			L.Shank.Lower.Ant			L.Shank.Lower.Post			L.Shank.Upper.Ant			L.Ankle.Lat			L.Ankle.Med			L.Heel.Upper			L.Heel.Med			L.Heel.Lat			L.Toe.Lat			L.Toe.Med			L.Toe.Tip			Cervical.Spine			Back			
		X1	Y1	Z1	X2	Y2	Z2	X3	Y3	Z3	X4	Y4	Z4	X5	Y5	Z5	X6	Y6	Z6	X7	Y7	Z7	X8	Y8	Z8	X9	Y9	Z9	X10	Y10	Z10	X11	Y11	Z11	X12	Y12	Z12	X13	Y13	Z13	X14	Y14	Z14	X15	Y15	Z15	X16	Y16	Z16	X17	Y17	Z17	X18	Y18	Z18	X19	Y19	Z19	X20	Y20	Z20	X21	Y21	Z21	X22	Y22	Z22	X23	Y23	Z23	X24	Y24	Z24	X25	Y25	Z25	X26	Y26	Z26	X27	Y27	Z27	X28	Y28	Z28	X29	Y29	Z29	X30	Y30	Z30	X31	Y31	Z31	X32	Y32	Z32	X33	Y33	Z33	X34	Y34	Z34	X35	Y35	Z35	X36	Y36	Z36	X37	Y37	Z37	X38	Y38	Z38	X39	Y39	Z39	X40	Y40	Z40	X41	Y41	Z41	X42	Y42	Z42	X43	Y43	Z43	X44	Y44	Z44	X45	Y45	Z45	X46	Y46	Z46	X47	Y47	Z47	X48	Y48	Z48	X49	Y49	Z49	X50	Y50	Z50	

245	1.0167	NaN	NaN	NaN	-113.9	1506.7	487.93	-146.72	1513.7	163.71	-146.11	1803.7	310.9	-106.94	987.14	466.91	-87.18	989.51	219.41	-302.1	1008.2	358.64	-293.03	1001.5	267.95	-209.61	917.44	521.31	-154.45	903.89	134.53	-196.73	1074.8	495.97	-176.2	1061	161.41	-312.09	972.04	326.96	-204.74	689.01	510.91	-163.65	605.8	463.82	-233.53	605.74	487.84	-136.97	687.52	489.24	-275.6	514.69	468.73	-254.04	495.59	342.5	-443.16	322.55	448.38	-410.88	236.62	445.93	-470.65	252.71	426.02	-380.88	306.75	463.9	-466.24	144.58	424.6	-444.69	170.24	337.01	-549.64	115.08	360.01	-548.3	82.662	331.58	-548.72	85.392	396.14	-395.44	32.68	456.43	-354.91	37.388	338.87	-292.67	44.5	386.52	-79.513	674.12	143.92	17.259	631.02	176.84	-40.526	589.13	164	-13.844	715.04	157.45	4.8664	513.77	174.4	10.849	304.93	178.19	94.436	273.43	179.31	34.548	237.53	197.53	67.393	338.22	166.78	116.26	117.82	204.4	148.36	148.51	285.54	80.382	57.886	262.23	107.4	39.668	293.65	93.952	31.094	234.63	260.23	82.506	165.34	285.56	111.34	279.36	335.87	141.46	219.13	-178.11	1544.6	335.77	-293.26	1269.5	339.97
246	1.0208	NaN	NaN	NaN	-108.27	1506.3	487.05	-140.76	1512.9	162.73	-140.33	1803.2	309.89	-100.56	986.64	466.62	-81.069	988.97	219.11	-295.96	1007.6	358.3	-286.95	1000.9	267.59	-203.48	916.91	521.01	-148.27	903.36	134.28	-190.64	1074.2	495.63	-170.09	1060.4	161.02	-305.93	971.42	326.62	-198.44	688.51	511.19	-157.03	605.21	464.41	-226.94	605.05	488.25	-130.6	687.09	489.55	-268.59	513.87	469.4	-248.71	495.27	342.11	-438.82	323.95	449.05	-407.62	237.56	446.47	-467.17	254.52	426.61	-376.71	307.26	464.52	-464.21	146.31	425.09	-442.21	171.7	337.61	-547.77	118.24	360.43	-547.04	85.981	331.85	-547.39	88.351	396.36	-395.27	32.793	456.49	-354.72	37.48	338.94	-292.58	44.269	386.51	-73.109	673.86	144.3	23.712	630.79	177.09	-34.107	588.89	164.48	-7.3718	714.75	157.47	11.135	513.37	174.65	15.356	304.49	178.45	98.61	272.19	179.92	38.31	236.85	197.81	72.249	337.24	167.31	118.59	116.71	204.77	150.79	146.77	286.21	82.021	57.687	262.4	108.31	39.03	293.93	94.906	30.887	234.85	262.06	79.737	166.23	287.45	107.84	280.37	338.3	137.46	220.37	-172.15	1544.1	334.75	-287.23	1268.9	339.28
247	1.025	NaN	NaN	NaN	-102.63	1506	486.15	-134.79	1512.2	161.73	-134.54	1802.8	308.87	-94.174	986.17	466.31	-74.974	988.5	218.77	-289.81	1007	357.99	-280.88	1000.4	267.26	-197.28	916.4	520.7	-142.13	902.9	134.01	-184.51	1073.7	495.28	-164.01	1059.9	160.62	-299.76	970.86	326.3	-191.99	688.01	511.45	-150.22	604.65	465.01	-220.17	604.36	488.69	-124.08	686.71	489.84	-261.41	513.05	470.15	-243.58	494.92	341.83	-434.24	325.41	449.73	-404.16	238.57	447.04	-463.47	256.43	427.22	-372.34	307.82	465.17	-461.99	148.15	425.6	-439.54	173.24	338.25	-545.69	121.61	360.87	-545.58	89.535	332.11	-545.88	91.537	396.59	-395.08	32.958	456.53	-354.5	37.599	339.02	-292.49	44.03	386.5	-66.774	673.65	144.66	30.114	630.6	177.27	-27.755	588.72	164.94	-0.95838	714.52	157.41	17.368	513.05	174.85	19.824	304.13	178.7	102.73	271.03	180.5	42.025	236.25	198.08	77.067	336.33	167.82	120.81	115.67	205.11	153.14	145.1	286.85	83.58	57.608	262.58	109.06	38.509	294.19	95.684	30.8	235.06	263.68	76.953	167.03	289.21	104.31	281.29	340.61	133.38	221.48	-166.18	1543.6	333.72	-281.19	1268.4	338.6
248	1.0292	NaN	NaN	NaN	-96.977	1505.7	485.24	-128.8	1511.5	160.71	-128.73	1802.4	307.84	-87.795	985.75	465.99	-68.902	988.1	218.41	-283.66	1006.5	357.71	-274.82	1000	266.95	-191.03	915.9	520.38	-136.05	902.53	133.73	-178.35	1073.3	494.91	-157.95	1059.4	160.22	-293.59	970.34	326	-185.37	687.53	511.72	-143.24	604.12	465.64	-213.2	603.67	489.16	-117.43	686.37	490.13	-254.06	512.25	470.96	-238.72	494.53	341.65	-429.41	326.94	450.41	-400.49	239.67	447.64	-459.54	258.44	427.87	-367.73	308.43	465.87	-459.58	150.12	426.14	-436.65	174.88	338.93	-543.36	125.22	361.31	-543.87	93.332	332.38	-544.19	94.964	396.84	-394.86	33.186	456.57	-354.23	37.751	339.11	-292.39	43.781	386.49	-60.522	673.49	145	36.448	630.47	177.37	-21.488	588.6	165.35	5.3812	714.34	157.29	23.554	512.8	175.01	24.26	303.87	178.93	106.82	269.94	181.04	45.705	235.76	198.33	81.849	335.51	168.28	122.91	114.72	205.42	155.43	143.52	287.44	85.079	57.643	262.77	109.7	38.103	294.43	96.322	30.825	235.25	265.14	74.183	167.74	290.87	100.79	282.1	342.8	129.25	222.47	-160.23	1543.2	332.67	-275.13	1267.9	337.91
249	1.0333	NaN	NaN	NaN	-91.32	1505.5	484.31	-122.79	1510.8	159.68	-122.91	1802.1	306.8	-81.449	985.36	465.66	-62.855	987.77	218.01	-277.49	1006	357.46	-268.78	999.67	266.67	-184.71	915.42	520.05	-130.02	902.23	133.44	-172.16	1072.9	494.53	-151.93	1059.1	159.82	-287.41	969.88	325.72	-178.59	687.05	511.99	-136.05	603.63	466.28	-206.04	602.98	489.67	-110.63	686.09	490.42	-246.51	511.44	471.84	-234.21	494.13	341.56	-424.29	328.54	451.1	-396.59	240.85	448.26	-455.35	260.55	428.53	-362.88	309.11	466.59	-456.95	152.22	426.7	-433.55	176.61	339.65	-540.77	129.07	361.78	-541.88	97.378	332.64	-542.28	98.646	397.09	-394.62	33.492	456.61	-353.92	37.942	339.19	-292.28	43.519	386.48	-54.365	673.38	145.31	42.703	630.39	177.4	-15.316	588.53	165.72	11.634	714.2	157.1	29.684	512.63	175.11	28.663	303.7	179.14	110.86	268.94	181.53	49.353	235.36	198.56	86.595	334.76	168.7	124.93	113.85	205.69	157.66	142.03	287.98	86.531	57.78	262.94	110.25	37.808	294.65	96.851	30.952	235.43	266.45	71.449	168.37	292.43	97.323	282.81	344.89	125.12	223.32	-154.27	1542.8	331.6	-269.06	1267.6	337.22
250	1.0375	NaN	NaN	NaN	-85.653	1505.3	483.37	-116.77	1510.2	158.63	-117.07	1801.9	305.75	-75.161	985.02	465.32	-56.839	987.51	217.57	-271.33	1005.6	357.23	-262.76	999.39	266.41	-178.34	914.96	519.7	-124.06	902.01	133.12	-165.96	1072.5	494.14	-145.95	1058.8	159.41	-281.23	969.47	325.47	-171.65	686.58	512.26	-128.67	603.16	466.94	-198.67	602.28	490.22	-103.67	685.85	490.72	-238.76	510.65	472.79	-230.13	493.73	341.55	-418.89	330.2	451.79	-392.44	242.12	448.92	-450.9	262.76	429.22	-357.77	309.84	467.36	-454.08	154.46	427.28	-430.19	178.45	340.41	-537.89	133.16	362.25	-539.6	101.68	332.89	-540.15	102.59	397.35	-394.33	33.888	456.63	-353.56	38.182	339.28	-292.14	43.241	386.47	-48.31	673.32	145.59	48.867	630.34	177.33	-9.2486	588.52	166.03	17.791	714.11	156.83	35.749	512.53	175.15	33.029	303.63	179.31	114.86	268.03	181.96	52.967	235.06	198.75	91.301	334.1	169.05	126.86	113.08	205.93	159.84	140.65	288.46	87.936	58.005	263.11	110.72	37.615	294.84	97.295	31.165	235.58	267.63	68.772	168.91	293.91	93.93	283.42	346.87	121.01	224.06	-148.32	1542.5	330.53	-262.98	1267.2	336.52
251	1.0417	NaN	NaN	NaN	-79.976	1505.2	482.43	-110.73	1509.7	157.58	-111.21	1801.7	304.69	-68.963	984.71	464.98	-50.858	987.33	217.1	-265.17	1005.3	357.04	-256.76	999.19	266.18	-171.92	914.51	519.35	-118.17	901.87	132.8	-159.75	1072.2	493.74	-140.01	1058.6	159.01	-275.06	969.13	325.25	-164.52	686.11	512.55	-121.09	602.74	467.63	-191.09	601.59	490.82	-96.561	685.67	491.01	-230.79	509.85	473.82	-226.54	493.35	341.59	-413.17	331.93	452.5	-388.03	243.48	449.6	-446.16	265.07	429.92	-352.38	310.63	468.16	-450.96	156.83	427.88	-426.59	180.39	341.21	-534.7	137.5	362.73	-536.98	106.23	333.13	-537.76	106.82	397.62	-394	34.391	456.65	-353.12	38.48	339.37	-291.97	42.948	386.48	-42.362	673.31	145.82	54.935	630.35	177.17	-3.2914	588.55	166.27	23.845	714.06	156.49	41.743	512.5	175.12	37.351	303.64	179.44	118.8	267.21	182.34	56.539	234.86	198.89	95.957	333.52	169.34	128.71	112.39	206.13	161.96	139.37	288.88	89.292	58.305	263.26	111.15	37.515	295.02	97.673	31.451	235.71	268.69	66.173	169.36	295.31	90.642	283.93	348.76	116.97	224.67	-142.37	1542.3	329.44	-256.9	1266.9	335.83
